<svg width="1024" height="1024" viewBox="0 0 1024 1024" fill="none" xmlns="http://www.w3.org/2000/svg">
  <defs>
    <radialGradient id="bg" cx="50%" cy="42%" r="70%">
      <stop offset="0%" stop-color="#0b2d4f"/>
      <stop offset="55%" stop-color="#071729"/>
      <stop offset="100%" stop-color="#030913"/>
    </radialGradient>
    <linearGradient id="cyan" x1="240" y1="260" x2="790" y2="760" gradientUnits="userSpaceOnUse">
      <stop offset="0%" stop-color="#7df9ff"/>
      <stop offset="42%" stop-color="#00e5ff"/>
      <stop offset="100%" stop-color="#2f8cff"/>
    </linearGradient>
    <linearGradient id="violet" x1="700" y1="260" x2="850" y2="760" gradientUnits="userSpaceOnUse">
      <stop offset="0%" stop-color="#8b5cf6" stop-opacity="0.85"/>
      <stop offset="100%" stop-color="#00e5ff" stop-opacity="0.15"/>
    </linearGradient>
    <filter id="glow" x="-35%" y="-35%" width="170%" height="170%">
      <feGaussianBlur stdDeviation="14" result="blur"/>
      <feColorMatrix in="blur" type="matrix" values="0 0 0 0 0  0 0 0 0 0.82  0 0 0 0 1  0 0 0 0.55 0" result="cyanGlow"/>
      <feMerge>
        <feMergeNode in="cyanGlow"/>
        <feMergeNode in="SourceGraphic"/>
      </feMerge>
    </filter>
    <filter id="soft" x="-20%" y="-20%" width="140%" height="140%">
      <feGaussianBlur stdDeviation="2"/>
    </filter>
  </defs>

  <rect width="1024" height="1024" rx="224" fill="url(#bg)"/>

  <!-- subtle grid/build field -->
  <g opacity="0.16">
    <path d="M180 512H844" stroke="#42dfff" stroke-width="2" stroke-dasharray="8 28"/>
    <path d="M512 180V844" stroke="#42dfff" stroke-width="2" stroke-dasharray="8 28"/>
    <circle cx="512" cy="512" r="332" stroke="#1aaeea" stroke-width="2"/>
    <circle cx="512" cy="512" r="246" stroke="#1aaeea" stroke-width="2"/>
  </g>

  <!-- echo ripple arcs -->
  <g stroke="url(#cyan)" stroke-linecap="round" opacity="0.9" filter="url(#glow)">
    <path d="M683 298C757 346 806 424 806 512C806 600 757 678 683 726" stroke-width="34"/>
    <path d="M738 218C841 285 909 393 909 512C909 631 841 739 738 806" stroke-width="22" opacity="0.55"/>
    <path d="M342 298C268 346 219 424 219 512C219 600 268 678 342 726" stroke-width="28" opacity="0.38"/>
  </g>

  <!-- abstract E / sound wave bars -->
  <g filter="url(#glow)">
    <rect x="308" y="276" width="330" height="104" rx="52" fill="url(#cyan)"/>
    <rect x="308" y="460" width="420" height="104" rx="52" fill="url(#cyan)"/>
    <rect x="308" y="644" width="330" height="104" rx="52" fill="url(#cyan)"/>
    <rect x="248" y="276" width="122" height="472" rx="61" fill="url(#cyan)"/>
  </g>

  <!-- carved inner shadow for icon depth -->
  <g opacity="0.2" filter="url(#soft)">
    <path d="M336 328H610" stroke="#ffffff" stroke-width="10" stroke-linecap="round"/>
    <path d="M336 512H700" stroke="#ffffff" stroke-width="10" stroke-linecap="round"/>
    <path d="M336 696H610" stroke="#ffffff" stroke-width="10" stroke-linecap="round"/>
  </g>

  <!-- builder pixels snapping into place -->
  <g fill="url(#violet)" filter="url(#glow)">
    <rect x="724" y="304" width="42" height="42" rx="10"/>
    <rect x="774" y="354" width="28" height="28" rx="7" opacity="0.8"/>
    <rect x="728" y="682" width="38" height="38" rx="9" opacity="0.9"/>
    <rect x="777" y="635" width="24" height="24" rx="6" opacity="0.7"/>
  </g>

  <!-- outer avatar ring -->
  <rect x="24" y="24" width="976" height="976" rx="204" stroke="#0ae8ff" stroke-opacity="0.22" stroke-width="8"/>
</svg>
